<svg width="36" height="40" viewBox="0 0 36 40" fill="none" xmlns="http://www.w3.org/2000/svg">
<g clip-path="url(#clip0_79_2001)">
<path d="M5.5 2.5C2.74219 2.5 0.5 4.74219 0.5 7.5V32.5C0.5 35.2578 2.74219 37.5 5.5 37.5H30.5C33.2578 37.5 35.5 35.2578 35.5 32.5V7.5C35.5 4.74219 33.2578 2.5 30.5 2.5H5.5ZM17.5312 21.2266L5.51562 13.4688C5.65625 12.2188 6.71094 11.25 8 11.25H28C29.2891 11.25 30.3438 12.2188 30.4844 13.4688L18.4688 21.2266C18.3281 21.3203 18.1641 21.3672 18 21.3672C17.8359 21.3672 17.6719 21.3203 17.5312 21.2266ZM19.8281 23.3281L30.5 16.4375V26.25C30.5 27.6328 29.3828 28.75 28 28.75H8C6.61719 28.75 5.5 27.6328 5.5 26.25V16.4375L16.1719 23.3281C16.7188 23.6797 17.3516 23.8672 18 23.8672C18.6484 23.8672 19.2812 23.6797 19.8281 23.3281Z" fill="#0D1F13"/>
</g>
<defs>
<clipPath id="clip0_79_2001">
<rect width="35" height="40" fill="white" transform="translate(0.5)"/>
</clipPath>
</defs>
</svg>
