<svg width="36" height="40" viewBox="0 0 36 40" fill="none" xmlns="http://www.w3.org/2000/svg">
<g clip-path="url(#clip0_79_2003)">
<path d="M18 15.8328C17.1759 15.8331 16.3703 16.0778 15.6853 16.5359C15.0002 16.994 14.4663 17.6449 14.1511 18.4064C13.836 19.1679 13.7537 20.0057 13.9146 20.8139C14.0756 21.6222 14.4726 22.3646 15.0555 22.9472C15.6383 23.5298 16.3808 23.9266 17.1892 24.0872C17.9975 24.2479 18.8353 24.1653 19.5966 23.8498C20.358 23.5344 21.0087 23.0003 21.4666 22.315C21.9244 21.6297 22.1687 20.8241 22.1687 20C22.1679 18.8948 21.7284 17.8351 20.9467 17.0537C20.1651 16.2724 19.1052 15.8332 18 15.8328ZM27.743 12.6297C27.5308 12.0921 27.2105 11.6038 26.8018 11.1951C26.3931 10.7864 25.9048 10.466 25.3672 10.2539C23.7266 9.60625 19.8203 9.75156 18 9.75156C16.1797 9.75156 12.2773 9.60078 10.632 10.2539C10.0944 10.466 9.60611 10.7864 9.19743 11.1951C8.78874 11.6038 8.46839 12.0921 8.25625 12.6297C7.60938 14.2703 7.75391 18.1805 7.75391 19.9992C7.75391 21.818 7.60938 25.7234 8.25938 27.3695C8.47152 27.9072 8.79187 28.3955 9.20055 28.8041C9.60923 29.2128 10.0975 29.5332 10.6352 29.7453C12.2758 30.393 16.182 30.2477 18.0031 30.2477C19.8242 30.2477 23.725 30.3984 25.3703 29.7453C25.9079 29.5332 26.3962 29.2128 26.8049 28.8041C27.2136 28.3955 27.534 27.9072 27.7461 27.3695C28.3984 25.7289 28.2484 21.8188 28.2484 20C28.2484 18.1812 28.3984 14.2766 27.7461 12.6305L27.743 12.6297ZM18 26.4062C16.733 26.4062 15.4944 26.0305 14.4409 25.3266C13.3874 24.6227 12.5663 23.6222 12.0814 22.4516C11.5965 21.281 11.4697 19.9929 11.7168 18.7502C11.964 17.5075 12.5742 16.366 13.4701 15.4701C14.366 14.5742 15.5075 13.964 16.7502 13.7168C17.9929 13.4697 19.281 13.5965 20.4516 14.0814C21.6222 14.5663 22.6227 15.3874 23.3266 16.4409C24.0305 17.4944 24.4062 18.733 24.4062 20C24.4073 20.8416 24.2423 21.6751 23.9207 22.4528C23.5991 23.2305 23.1273 23.9371 22.5322 24.5322C21.9371 25.1273 21.2305 25.5991 20.4528 25.9207C19.6751 26.2423 18.8416 26.4073 18 26.4062ZM24.6703 14.8203C24.3745 14.8205 24.0854 14.7329 23.8393 14.5687C23.5933 14.4045 23.4016 14.171 23.2883 13.8978C23.175 13.6246 23.1452 13.3239 23.2029 13.0338C23.2605 12.7436 23.4028 12.4771 23.6119 12.2679C23.821 12.0587 24.0874 11.9162 24.3775 11.8585C24.6676 11.8007 24.9683 11.8303 25.2416 11.9434C25.5149 12.0566 25.7484 12.2482 25.9128 12.4942C26.0771 12.7401 26.1648 13.0292 26.1648 13.325C26.1657 13.5214 26.1277 13.7161 26.0531 13.8978C25.9786 14.0795 25.8688 14.2447 25.7303 14.3839C25.5917 14.5231 25.427 14.6336 25.2457 14.709C25.0643 14.7845 24.8699 14.8233 24.6734 14.8234L24.6703 14.8203ZM31.75 2.5H4.25C3.25544 2.5 2.30161 2.89509 1.59835 3.59835C0.895088 4.30161 0.5 5.25544 0.5 6.25L0.5 33.75C0.5 34.7446 0.895088 35.6984 1.59835 36.4016C2.30161 37.1049 3.25544 37.5 4.25 37.5H31.75C32.7446 37.5 33.6984 37.1049 34.4016 36.4016C35.1049 35.6984 35.5 34.7446 35.5 33.75V6.25C35.5 5.25544 35.1049 4.30161 34.4016 3.59835C33.6984 2.89509 32.7446 2.5 31.75 2.5ZM30.4125 25.1562C30.3117 27.1586 29.8547 28.9328 28.393 30.3906C26.9312 31.8484 25.1586 32.3148 23.1586 32.4102C21.0953 32.5266 14.9094 32.5266 12.8461 32.4102C10.8438 32.3094 9.07578 31.8516 7.61172 30.3906C6.14766 28.9297 5.6875 27.1547 5.59219 25.1562C5.47578 23.0922 5.47578 16.9055 5.59219 14.8438C5.69297 12.8414 6.14453 11.0672 7.61172 9.60938C9.07891 8.15156 10.8516 7.69063 12.8461 7.59531C14.9094 7.47891 21.0953 7.47891 23.1586 7.59531C25.1609 7.69609 26.9344 8.15391 28.393 9.61484C29.8516 11.0758 30.3172 12.8508 30.4125 14.8531C30.5289 16.9094 30.5289 23.0906 30.4125 25.1562Z" fill="#0D1F13"/>
</g>
<defs>
<clipPath id="clip0_79_2003">
<rect width="35" height="40" fill="white" transform="translate(0.5)"/>
</clipPath>
</defs>
</svg>
