<svg width="36" height="40" viewBox="0 0 36 40" fill="none" xmlns="http://www.w3.org/2000/svg">
<g clip-path="url(#clip0_79_2005)">
<path d="M15.0938 15.7891L22.5312 20.0156L15.0938 24.2422V15.7891ZM35.5 6.25V33.75C35.5 35.8203 33.8203 37.5 31.75 37.5H4.25C2.17969 37.5 0.5 35.8203 0.5 33.75V6.25C0.5 4.17969 2.17969 2.5 4.25 2.5H31.75C33.8203 2.5 35.5 4.17969 35.5 6.25ZM32.2188 20.0234C32.2188 20.0234 32.2188 15.3672 31.625 13.1328C31.2969 11.8984 30.3359 10.9297 29.1094 10.6016C26.8984 10 18 10 18 10C18 10 9.10156 10 6.89062 10.6016C5.66406 10.9297 4.70312 11.8984 4.375 13.1328C3.78125 15.3594 3.78125 20.0234 3.78125 20.0234C3.78125 20.0234 3.78125 24.6797 4.375 26.9141C4.70312 28.1484 5.66406 29.0781 6.89062 29.4062C9.10156 30 18 30 18 30C18 30 26.8984 30 29.1094 29.3984C30.3359 29.0703 31.2969 28.1406 31.625 26.9062C32.2188 24.6797 32.2188 20.0234 32.2188 20.0234Z" fill="#0D1F13"/>
</g>
<defs>
<clipPath id="clip0_79_2005">
<rect width="35" height="40" fill="white" transform="translate(0.5)"/>
</clipPath>
</defs>
</svg>
